<svg width="129" height="48" viewBox="0 0 129 48" fill="none" xmlns="http://www.w3.org/2000/svg">
<rect width="129" height="48" fill="#006BB9"/>
<path d="M17.8652 27.5234C17.8652 28.0638 17.7643 28.5293 17.5625 28.9199C17.3672 29.3105 17.1035 29.6426 16.7715 29.916C16.4395 30.1895 16.0553 30.4141 15.6191 30.5898C15.1895 30.7591 14.7402 30.8926 14.2715 30.9902C13.8027 31.0879 13.3307 31.153 12.8555 31.1855C12.3867 31.2181 11.9473 31.2344 11.5371 31.2344C11.1335 31.2344 10.7135 31.2181 10.2773 31.1855C9.84766 31.1595 9.41797 31.1107 8.98828 31.0391C8.55859 30.9674 8.13542 30.873 7.71875 30.7559C7.30208 30.6322 6.9082 30.4792 6.53711 30.2969L6.51758 17.7188C6.88216 17.569 7.26953 17.4355 7.67969 17.3184C8.08984 17.1947 8.50651 17.0938 8.92969 17.0156C9.35938 16.931 9.78581 16.8691 10.209 16.8301C10.6322 16.7845 11.0423 16.7617 11.4395 16.7617C11.9017 16.7617 12.3672 16.791 12.8359 16.8496C13.3112 16.9082 13.7669 17.0059 14.2031 17.1426C14.6393 17.2793 15.0462 17.4583 15.4238 17.6797C15.8014 17.8945 16.1302 18.1615 16.4102 18.4805C16.6966 18.7995 16.918 19.1706 17.0742 19.5938C17.237 20.0169 17.3184 20.5052 17.3184 21.0586C17.3184 21.4232 17.2663 21.765 17.1621 22.084C17.0579 22.403 16.9082 22.6895 16.7129 22.9434C16.5176 23.1973 16.2799 23.4154 16 23.5977C15.7201 23.7734 15.4043 23.9036 15.0527 23.9883C15.4759 24.099 15.86 24.2617 16.2051 24.4766C16.5566 24.6914 16.8529 24.9518 17.0938 25.2578C17.3411 25.5638 17.5299 25.9089 17.6602 26.293C17.7969 26.6771 17.8652 27.0872 17.8652 27.5234ZM12.9043 21.957C12.9043 21.7682 12.8652 21.6087 12.7871 21.4785C12.709 21.3418 12.6113 21.2311 12.4941 21.1465C12.3835 21.0618 12.2598 21 12.123 20.9609C11.9928 20.9219 11.8757 20.9023 11.7715 20.9023C11.6413 20.9023 11.5143 20.9219 11.3906 20.9609C11.2669 21 11.1465 21.0456 11.0293 21.0977L10.9707 23.2656C11.1204 23.2656 11.306 23.2526 11.5273 23.2266C11.7487 23.2005 11.9603 23.1452 12.1621 23.0605C12.3704 22.9694 12.5462 22.8392 12.6895 22.6699C12.8327 22.4941 12.9043 22.2565 12.9043 21.957ZM11.5176 25.1406C11.3288 25.1406 11.1465 25.1602 10.9707 25.1992L10.9316 27.4258C11.0293 27.4453 11.1237 27.4648 11.2148 27.4844C11.3125 27.4974 11.4069 27.5039 11.498 27.5039C11.6348 27.5039 11.7845 27.4909 11.9473 27.4648C12.11 27.4323 12.263 27.3737 12.4062 27.2891C12.5495 27.1979 12.6667 27.0775 12.7578 26.9277C12.8555 26.778 12.9043 26.5794 12.9043 26.332C12.9043 26.0846 12.8555 25.8828 12.7578 25.7266C12.6667 25.5703 12.5527 25.4499 12.416 25.3652C12.2793 25.2741 12.1296 25.2155 11.9668 25.1895C11.804 25.1569 11.6543 25.1406 11.5176 25.1406ZM30.0332 17.25C29.7402 19.5417 29.4896 21.8236 29.2812 24.0957C29.0729 26.3613 28.8743 28.6432 28.6855 30.9414L24.6816 31.2344L24.8574 29.7305C24.7272 29.8802 24.5742 30.0104 24.3984 30.1211C24.2292 30.2318 24.0469 30.3229 23.8516 30.3945C23.6562 30.4596 23.4544 30.5085 23.2461 30.541C23.0378 30.5671 22.8392 30.5768 22.6504 30.5703C22.2077 30.5638 21.791 30.4792 21.4004 30.3164C21.0098 30.1471 20.6517 29.9258 20.3262 29.6523C20.0007 29.3724 19.7077 29.0501 19.4473 28.6855C19.1868 28.3145 18.9655 27.9271 18.7832 27.5234C18.6074 27.1133 18.4707 26.6966 18.373 26.2734C18.2819 25.8503 18.2363 25.4401 18.2363 25.043C18.2363 24.457 18.2461 23.8516 18.2656 23.2266C18.2917 22.5951 18.334 21.9635 18.3926 21.332C18.4512 20.7005 18.526 20.0755 18.6172 19.457C18.7148 18.8385 18.8353 18.2461 18.9785 17.6797C19.7728 17.7188 20.5703 17.7546 21.3711 17.7871C22.1719 17.8197 22.9694 17.8294 23.7637 17.8164C23.6139 18.3828 23.4642 18.9525 23.3145 19.5254C23.1712 20.0918 23.041 20.6647 22.9238 21.2441C22.8066 21.8171 22.7122 22.3932 22.6406 22.9727C22.569 23.5521 22.5332 24.138 22.5332 24.7305C22.5332 24.8672 22.5397 25.0625 22.5527 25.3164C22.5658 25.5703 22.5983 25.821 22.6504 26.0684C22.709 26.3158 22.7936 26.5339 22.9043 26.7227C23.0215 26.9049 23.1842 26.9961 23.3926 26.9961C23.64 26.9961 23.8613 26.8919 24.0566 26.6836C24.252 26.4688 24.4245 26.1823 24.5742 25.8242C24.724 25.4661 24.8509 25.0527 24.9551 24.584C25.0658 24.1152 25.1569 23.627 25.2285 23.1191C25.3066 22.6048 25.3685 22.0872 25.4141 21.5664C25.4596 21.0456 25.4922 20.5573 25.5117 20.1016C25.5378 19.6393 25.554 19.2259 25.5605 18.8613C25.5736 18.4967 25.5801 18.2135 25.5801 18.0117C25.5801 17.8815 25.5768 17.7546 25.5703 17.6309C25.5638 17.5072 25.554 17.3802 25.541 17.25C25.9642 17.263 26.3841 17.2728 26.8008 17.2793C27.2174 17.2858 27.6374 17.2891 28.0605 17.2891C28.3861 17.2891 28.7116 17.2891 29.0371 17.2891C29.3691 17.2826 29.7012 17.2695 30.0332 17.25ZM40.5312 26C40.5312 26.8919 40.375 27.6634 40.0625 28.3145C39.7565 28.959 39.3333 29.4928 38.793 29.916C38.2591 30.3327 37.6309 30.6419 36.9082 30.8438C36.1921 31.0391 35.4206 31.1367 34.5938 31.1367C34.2747 31.1367 33.9232 31.0944 33.5391 31.0098C33.1615 30.9251 32.7773 30.821 32.3867 30.6973C31.9961 30.5671 31.6185 30.4303 31.2539 30.2871C30.8958 30.1374 30.5768 29.9974 30.2969 29.8672L30.7266 26.0391C31.2799 26.3711 31.8919 26.625 32.5625 26.8008C33.2396 26.9701 33.9036 27.0547 34.5547 27.0547C34.6784 27.0547 34.8281 27.0514 35.0039 27.0449C35.1797 27.0319 35.3457 27.0026 35.502 26.957C35.6647 26.9049 35.8014 26.8301 35.9121 26.7324C36.0228 26.6348 36.0781 26.4948 36.0781 26.3125C36.0781 26.1888 36.0391 26.0846 35.9609 26C35.8828 25.9089 35.7819 25.8372 35.6582 25.7852C35.5345 25.7266 35.3945 25.6842 35.2383 25.6582C35.082 25.6257 34.929 25.6029 34.7793 25.5898C34.6296 25.5768 34.4896 25.5703 34.3594 25.5703C34.2292 25.5703 34.125 25.5703 34.0469 25.5703C33.487 25.5703 32.9759 25.4824 32.5137 25.3066C32.0579 25.1309 31.6641 24.8835 31.332 24.5645C31.0065 24.2389 30.7526 23.8483 30.5703 23.3926C30.388 22.9303 30.2969 22.4193 30.2969 21.8594C30.2969 21.0911 30.4499 20.4043 30.7559 19.7988C31.0684 19.1868 31.4818 18.6693 31.9961 18.2461C32.5169 17.8164 33.1126 17.4876 33.7832 17.2598C34.4538 17.0319 35.1471 16.918 35.8633 16.918C36.1823 16.918 36.5111 16.931 36.8496 16.957C37.1882 16.9766 37.5234 17.0156 37.8555 17.0742C38.194 17.1328 38.5228 17.2077 38.8418 17.2988C39.1608 17.39 39.4635 17.5039 39.75 17.6406L39.3789 21.6055C38.9362 21.4557 38.4707 21.332 37.9824 21.2344C37.5007 21.1302 37.0286 21.0781 36.5664 21.0781C36.4818 21.0781 36.3711 21.0814 36.2344 21.0879C36.1042 21.0879 35.9642 21.0977 35.8145 21.1172C35.6712 21.1302 35.5247 21.153 35.375 21.1855C35.2253 21.2181 35.0918 21.2637 34.9746 21.3223C34.8574 21.3743 34.763 21.446 34.6914 21.5371C34.6198 21.6283 34.5872 21.7357 34.5938 21.8594C34.6003 22.0026 34.6523 22.1133 34.75 22.1914C34.8542 22.2695 34.9844 22.3281 35.1406 22.3672C35.3034 22.3997 35.4792 22.416 35.668 22.416C35.8633 22.416 36.0553 22.4128 36.2441 22.4062C36.4329 22.3932 36.6087 22.3835 36.7715 22.377C36.9342 22.3639 37.0677 22.3607 37.1719 22.3672C37.6927 22.3997 38.1615 22.5104 38.5781 22.6992C38.9948 22.888 39.3464 23.1387 39.6328 23.4512C39.9258 23.7637 40.1471 24.138 40.2969 24.5742C40.4531 25.0039 40.5312 25.4792 40.5312 26Z" fill="white"/>
<path d="M91.8652 27.5234C91.8652 28.0638 91.7643 28.5293 91.5625 28.9199C91.3672 29.3105 91.1035 29.6426 90.7715 29.916C90.4395 30.1895 90.0553 30.4141 89.6191 30.5898C89.1895 30.7591 88.7402 30.8926 88.2715 30.9902C87.8027 31.0879 87.3307 31.153 86.8555 31.1855C86.3867 31.2181 85.9473 31.2344 85.5371 31.2344C85.1335 31.2344 84.7135 31.2181 84.2773 31.1855C83.8477 31.1595 83.418 31.1107 82.9883 31.0391C82.5586 30.9674 82.1354 30.873 81.7188 30.7559C81.3021 30.6322 80.9082 30.4792 80.5371 30.2969L80.5176 17.7188C80.8822 17.569 81.2695 17.4355 81.6797 17.3184C82.0898 17.1947 82.5065 17.0938 82.9297 17.0156C83.3594 16.931 83.7858 16.8691 84.209 16.8301C84.6322 16.7845 85.0423 16.7617 85.4395 16.7617C85.9017 16.7617 86.3672 16.791 86.8359 16.8496C87.3112 16.9082 87.7669 17.0059 88.2031 17.1426C88.6393 17.2793 89.0462 17.4583 89.4238 17.6797C89.8014 17.8945 90.1302 18.1615 90.4102 18.4805C90.6966 18.7995 90.918 19.1706 91.0742 19.5938C91.237 20.0169 91.3184 20.5052 91.3184 21.0586C91.3184 21.4232 91.2663 21.765 91.1621 22.084C91.0579 22.403 90.9082 22.6895 90.7129 22.9434C90.5176 23.1973 90.2799 23.4154 90 23.5977C89.7201 23.7734 89.4043 23.9036 89.0527 23.9883C89.4759 24.099 89.86 24.2617 90.2051 24.4766C90.5566 24.6914 90.8529 24.9518 91.0938 25.2578C91.3411 25.5638 91.5299 25.9089 91.6602 26.293C91.7969 26.6771 91.8652 27.0872 91.8652 27.5234ZM86.9043 21.957C86.9043 21.7682 86.8652 21.6087 86.7871 21.4785C86.709 21.3418 86.6113 21.2311 86.4941 21.1465C86.3835 21.0618 86.2598 21 86.123 20.9609C85.9928 20.9219 85.8757 20.9023 85.7715 20.9023C85.6413 20.9023 85.5143 20.9219 85.3906 20.9609C85.2669 21 85.1465 21.0456 85.0293 21.0977L84.9707 23.2656C85.1204 23.2656 85.306 23.2526 85.5273 23.2266C85.7487 23.2005 85.9603 23.1452 86.1621 23.0605C86.3704 22.9694 86.5462 22.8392 86.6895 22.6699C86.8327 22.4941 86.9043 22.2565 86.9043 21.957ZM85.5176 25.1406C85.3288 25.1406 85.1465 25.1602 84.9707 25.1992L84.9316 27.4258C85.0293 27.4453 85.1237 27.4648 85.2148 27.4844C85.3125 27.4974 85.4069 27.5039 85.498 27.5039C85.6348 27.5039 85.7845 27.4909 85.9473 27.4648C86.11 27.4323 86.263 27.3737 86.4062 27.2891C86.5495 27.1979 86.6667 27.0775 86.7578 26.9277C86.8555 26.778 86.9043 26.5794 86.9043 26.332C86.9043 26.0846 86.8555 25.8828 86.7578 25.7266C86.6667 25.5703 86.5527 25.4499 86.416 25.3652C86.2793 25.2741 86.1296 25.2155 85.9668 25.1895C85.804 25.1569 85.6543 25.1406 85.5176 25.1406ZM104.229 23.5195C104.229 24.112 104.16 24.6849 104.023 25.2383C103.887 25.7852 103.688 26.2995 103.428 26.7812C103.174 27.263 102.861 27.7057 102.49 28.1094C102.126 28.5065 101.712 28.8483 101.25 29.1348C100.794 29.4212 100.296 29.6458 99.7559 29.8086C99.2155 29.9648 98.6426 30.043 98.0371 30.043C97.4512 30.043 96.8913 29.9681 96.3574 29.8184C95.8301 29.6686 95.3353 29.4603 94.873 29.1934C94.4108 28.9199 93.9909 28.5944 93.6133 28.2168C93.2422 27.8327 92.9232 27.4095 92.6562 26.9473C92.3958 26.4785 92.1908 25.9772 92.041 25.4434C91.8978 24.9095 91.8262 24.3529 91.8262 23.7734C91.8262 23.207 91.8945 22.6536 92.0312 22.1133C92.168 21.5664 92.3633 21.0521 92.6172 20.5703C92.8776 20.0885 93.1901 19.6458 93.5547 19.2422C93.9193 18.8385 94.3262 18.4902 94.7754 18.1973C95.2311 17.9043 95.7227 17.6764 96.25 17.5137C96.7773 17.3509 97.334 17.2695 97.9199 17.2695C98.8639 17.2695 99.7233 17.416 100.498 17.709C101.279 18.002 101.943 18.4219 102.49 18.9688C103.044 19.5091 103.47 20.1667 103.77 20.9414C104.076 21.7096 104.229 22.569 104.229 23.5195ZM99.8926 23.7734C99.8926 23.4935 99.8503 23.2233 99.7656 22.9629C99.6875 22.696 99.5703 22.4616 99.4141 22.2598C99.2578 22.0514 99.0625 21.8854 98.8281 21.7617C98.6003 21.6315 98.3366 21.5664 98.0371 21.5664C97.7311 21.5664 97.4577 21.6217 97.2168 21.7324C96.9759 21.8431 96.7676 21.9961 96.5918 22.1914C96.4225 22.3802 96.2923 22.6048 96.2012 22.8652C96.11 23.1191 96.0645 23.3893 96.0645 23.6758C96.0645 23.9492 96.1035 24.2227 96.1816 24.4961C96.2598 24.7695 96.377 25.0169 96.5332 25.2383C96.6895 25.4596 96.8815 25.6387 97.1094 25.7754C97.3438 25.9121 97.6139 25.9805 97.9199 25.9805C98.2259 25.9805 98.4993 25.9219 98.7402 25.8047C98.9876 25.681 99.196 25.5182 99.3652 25.3164C99.5345 25.1081 99.6647 24.8704 99.7559 24.6035C99.847 24.3366 99.8926 24.0599 99.8926 23.7734ZM116.982 23.5195C116.982 24.112 116.914 24.6849 116.777 25.2383C116.641 25.7852 116.442 26.2995 116.182 26.7812C115.928 27.263 115.615 27.7057 115.244 28.1094C114.88 28.5065 114.466 28.8483 114.004 29.1348C113.548 29.4212 113.05 29.6458 112.51 29.8086C111.969 29.9648 111.396 30.043 110.791 30.043C110.205 30.043 109.645 29.9681 109.111 29.8184C108.584 29.6686 108.089 29.4603 107.627 29.1934C107.165 28.9199 106.745 28.5944 106.367 28.2168C105.996 27.8327 105.677 27.4095 105.41 26.9473C105.15 26.4785 104.945 25.9772 104.795 25.4434C104.652 24.9095 104.58 24.3529 104.58 23.7734C104.58 23.207 104.648 22.6536 104.785 22.1133C104.922 21.5664 105.117 21.0521 105.371 20.5703C105.632 20.0885 105.944 19.6458 106.309 19.2422C106.673 18.8385 107.08 18.4902 107.529 18.1973C107.985 17.9043 108.477 17.6764 109.004 17.5137C109.531 17.3509 110.088 17.2695 110.674 17.2695C111.618 17.2695 112.477 17.416 113.252 17.709C114.033 18.002 114.697 18.4219 115.244 18.9688C115.798 19.5091 116.224 20.1667 116.523 20.9414C116.829 21.7096 116.982 22.569 116.982 23.5195ZM112.646 23.7734C112.646 23.4935 112.604 23.2233 112.52 22.9629C112.441 22.696 112.324 22.4616 112.168 22.2598C112.012 22.0514 111.816 21.8854 111.582 21.7617C111.354 21.6315 111.09 21.5664 110.791 21.5664C110.485 21.5664 110.212 21.6217 109.971 21.7324C109.73 21.8431 109.521 21.9961 109.346 22.1914C109.176 22.3802 109.046 22.6048 108.955 22.8652C108.864 23.1191 108.818 23.3893 108.818 23.6758C108.818 23.9492 108.857 24.2227 108.936 24.4961C109.014 24.7695 109.131 25.0169 109.287 25.2383C109.443 25.4596 109.635 25.6387 109.863 25.7754C110.098 25.9121 110.368 25.9805 110.674 25.9805C110.98 25.9805 111.253 25.9219 111.494 25.8047C111.742 25.681 111.95 25.5182 112.119 25.3164C112.288 25.1081 112.419 24.8704 112.51 24.6035C112.601 24.3366 112.646 24.0599 112.646 23.7734Z" fill="white"/>
<path d="M64 29.5C64.1016 32.8329 68.8981 32.8337 69 29.5C68.8986 26.1671 64.1021 26.1662 64 29.5Z" fill="white"/>
<path d="M51 29.5C51.1016 32.8329 55.8981 32.8337 56 29.5C55.8986 26.1671 51.102 26.1663 51 29.5Z" fill="white"/>
<path d="M71.982 18.6852C72.1485 17.284 71.1451 16.0025 69.5881 16H54.7455C54.4309 15.9994 54.1193 16.0569 53.8286 16.1693C53.5378 16.2817 53.2736 16.4468 53.0512 16.655C52.8287 16.8633 52.6524 17.1107 52.5324 17.3829C52.4123 17.6551 52.3509 17.9469 52.3515 18.2414V23.6207H52.3468L49.8714 24.6114C49.6122 24.7155 49.3913 24.8888 49.2364 25.1096C49.0814 25.3304 48.9992 25.5889 49 25.8531V28.3276C48.9998 28.4159 49.0182 28.5035 49.0542 28.5852C49.0902 28.6668 49.1431 28.7411 49.2098 28.8035C49.2766 28.866 49.3558 28.9156 49.4431 28.9493C49.5303 28.983 49.6238 29.0002 49.7182 29C49.9034 24.2424 57.192 24.2446 57.3789 29H62.6456C62.8307 24.2424 70.1193 24.2446 70.3062 29H71.2638C71.3582 29.0001 71.4516 28.9828 71.5388 28.9491C71.626 28.9153 71.7052 28.8658 71.772 28.8033C71.8387 28.7409 71.8916 28.6667 71.9276 28.5851C71.9637 28.5034 71.9821 28.4159 71.982 28.3276V18.6852ZM56.9001 22.6207C56.9001 23.173 56.4524 23.6207 55.9001 23.6207H54.7879C54.2356 23.6207 53.7879 23.173 53.7879 22.6207V19.6897C53.7879 19.1374 54.2356 18.6897 54.7879 18.6897H55.9001C56.4524 18.6897 56.9001 19.1374 56.9001 19.6897V22.6207ZM61.4486 22.6207C61.4486 23.173 61.0009 23.6207 60.4486 23.6207H59.3364C58.7842 23.6207 58.3364 23.173 58.3364 22.6207V19.6897C58.3364 19.1374 58.7842 18.6897 59.3364 18.6897H60.4486C61.0009 18.6897 61.4486 19.1374 61.4486 19.6897V22.6207ZM65.9971 22.6207C65.9971 23.173 65.5494 23.6207 64.9971 23.6207H63.885C63.3327 23.6207 62.885 23.173 62.885 22.6207V19.6897C62.885 19.1374 63.3327 18.6897 63.885 18.6897H64.9971C65.5494 18.6897 65.9971 19.1374 65.9971 19.6897V22.6207ZM70.5456 22.6207C70.5456 23.173 70.0979 23.6207 69.5456 23.6207H68.4335C67.8812 23.6207 67.4335 23.173 67.4335 22.6207V19.6897C67.4335 19.1374 67.8812 18.6897 68.4335 18.6897H69.5456C70.0979 18.6897 70.5456 19.1374 70.5456 19.6897V22.6207Z" fill="#FFC973"/>
</svg>
